<?xml version="1.0" encoding="UTF-8"?>
<svg version="1.1" xmlns="http://www.w3.org/2000/svg" width="1024" height="1024">
<path d="M0 0 C7.23918735 5.45677396 13.90754393 11.64644937 20.6796875 17.6640625 C32.7978717 28.05107752 46.59605127 34.68988267 61.83984375 39.140625 C62.99226562 39.4809375 64.1446875 39.82125 65.33203125 40.171875 C81.86246974 44.22014565 99.41597832 43.22175116 115.90234375 39.640625 C144.83016539 33.3820134 174.23565087 37.47913623 199.6015625 53.01953125 C223.67552402 68.78812124 238.01296213 90.88972309 247.27734375 117.640625 C255.38665209 140.94791971 269.27687792 162.1148334 290.83984375 175.140625 C291.39784668 175.47771484 291.95584961 175.81480469 292.53076172 176.16210938 C301.47856667 181.46275001 310.64535343 185.30136252 320.46484375 188.703125 C335.25460226 193.83286625 347.61026129 200.17643553 359.83984375 210.140625 C360.61714844 210.75292969 361.39445313 211.36523438 362.1953125 211.99609375 C381.94922914 228.39359269 394.74253527 254.38622364 397.62451172 279.70605469 C398.93912293 294.56921005 397.89562999 308.72388734 394.8125 323.29296875 C389.18629441 350.11396679 394.65737513 376.49765385 407.83984375 400.140625 C408.37222656 401.11515625 408.90460937 402.0896875 409.453125 403.09375 C413.23096203 409.50576124 417.96906224 414.66299573 423.06982422 420.02001953 C427.55265753 424.74923362 431.40956918 429.58407855 434.83984375 435.140625 C435.50628906 436.21957031 436.17273438 437.29851562 436.859375 438.41015625 C451.76813008 463.18199866 456.50523353 493.16006358 449.77734375 521.453125 C444.52592399 541.33933742 434.54514665 557.32078947 421.12255859 572.66503906 C405.1574784 591.03065472 393.86554445 613.39559568 392.83984375 638.140625 C392.78828125 639.12417969 392.73671875 640.10773437 392.68359375 641.12109375 C392.37919392 652.14290409 394.10435533 662.91092305 396.37451172 673.67602539 C402.2403304 702.47018567 396.6599205 731.70305853 380.99658203 756.39355469 C365.08357479 780.42763653 344.09565982 793.16987429 317.48925781 802.80957031 C288.26640792 813.41603904 265.64043369 832.06111246 252.15234375 860.390625 C249.63859365 865.82758874 247.71355537 871.37408732 245.90234375 877.078125 C241.47362279 890.95083421 235.18878925 902.8994401 225.83984375 914.140625 C225.11925781 915.01332031 224.39867187 915.88601563 223.65625 916.78515625 C205.82478392 937.47728534 180.95485805 950.20777651 153.83984375 953.140625 C139.53295608 953.86478525 125.74296486 953.67932285 111.828125 950.11328125 C90.25917261 944.59982533 65.90322976 948.05900877 45.83984375 957.140625 C44.99679687 957.50800781 44.15375 957.87539063 43.28515625 958.25390625 C32.88087621 963.09040065 23.86534847 970.00465451 15.48046875 977.75390625 C-9.07861749 999.95154189 -36.94176427 1008.70759035 -69.98486328 1007.35205078 C-96.23951186 1005.60389411 -118.56951647 993.83836577 -137.41015625 976.01171875 C-158.3753051 956.35689171 -186.51342798 947.38601916 -214.8203125 947.87890625 C-223.26723285 948.1781408 -231.39266774 949.88739306 -239.63085938 951.67749023 C-246.9242391 953.15375174 -253.97927112 953.48946829 -261.41015625 953.453125 C-262.60092773 953.44821045 -263.79169922 953.4432959 -265.01855469 953.43823242 C-273.76940619 953.32183296 -281.72312745 952.60348569 -290.16015625 950.140625 C-291.39378906 949.78871094 -292.62742187 949.43679688 -293.8984375 949.07421875 C-321.53798365 940.74739496 -344.5649428 922.06559509 -358.31811523 896.65234375 C-362.13251431 889.21036544 -364.90374978 881.46268871 -367.66015625 873.578125 C-373.18224859 857.81060432 -380.21412031 844.81231111 -391.16015625 832.140625 C-391.8046875 831.39296875 -392.44921875 830.6453125 -393.11328125 829.875 C-406.28341164 815.78868662 -423.11705841 807.74209855 -441.09765625 801.703125 C-465.45897117 793.49815271 -487.4004653 779.5001228 -501.16015625 757.140625 C-501.51851563 756.56183594 -501.876875 755.98304688 -502.24609375 755.38671875 C-519.70633439 726.85270133 -521.64998694 696.38073884 -514.82421875 664.3203125 C-509.14381006 637.12117913 -516.22057713 607.91800007 -531.2890625 584.88671875 C-535.06528417 579.70539134 -539.19674341 574.98016643 -543.59765625 570.328125 C-562.87157072 549.84811695 -572.57427309 523.55911468 -572.53515625 495.578125 C-572.53461243 494.91932343 -572.5340686 494.26052185 -572.5335083 493.58175659 C-572.49205115 482.62927502 -571.61536438 472.5456924 -568.16015625 462.140625 C-567.94584961 461.4914209 -567.73154297 460.8422168 -567.51074219 460.17333984 C-561.81445305 443.54465299 -552.66647409 430.17555677 -540.72265625 417.390625 C-521.42574021 396.03941249 -512.00120835 368.05062189 -513.01074219 339.41308594 C-513.54227541 331.32891725 -515.17209766 323.28940323 -516.69702148 315.34301758 C-518.04786255 307.95966997 -518.5112411 300.82868519 -518.47265625 293.328125 C-518.4677417 292.18883545 -518.46282715 291.0495459 -518.45776367 289.87573242 C-518.33830904 281.2682602 -517.5525626 273.44651963 -515.16015625 265.140625 C-514.81984375 263.91730469 -514.47953125 262.69398438 -514.12890625 261.43359375 C-509.74549773 247.05423675 -502.68278067 234.76117701 -493.16015625 223.140625 C-492.46277344 222.27824219 -491.76539063 221.41585937 -491.046875 220.52734375 C-477.05327446 204.07782794 -458.24704206 194.82817069 -438.25390625 187.75390625 C-423.44200432 182.46929456 -409.79512618 175.9314173 -398.16015625 165.140625 C-397.32226562 164.38265625 -396.484375 163.6246875 -395.62109375 162.84375 C-381.13973747 149.12457037 -372.46672096 132.42610734 -366.22265625 113.703125 C-361.19335665 98.66212518 -354.7727891 85.99106015 -344.16015625 74.140625 C-343.66128906 73.5115625 -343.16242188 72.8825 -342.6484375 72.234375 C-326.47018536 51.83772474 -299.32738689 40.36056763 -274.16015625 37.140625 C-260.01500306 35.91980947 -246.47764865 37.06454634 -232.65625 40.16796875 C-216.6606644 43.74624049 -200.00113974 43.10488328 -184.16015625 39.140625 C-183.51127441 38.97965332 -182.86239258 38.81868164 -182.19384766 38.65283203 C-163.79160128 33.93558542 -146.71100322 24.36639735 -133.59765625 10.515625 C-121.06496393 -2.54705679 -102.44262865 -10.53613485 -85.16015625 -14.859375 C-84.43513916 -15.04411377 -83.71012207 -15.22885254 -82.96313477 -15.41918945 C-55.14296524 -21.78402505 -23.66250699 -15.79872647 0 0 Z " fill="#00BF63" transform="translate(572.16015625,16.859375)"/>
<path d="M0 0 C7.23918735 5.45677396 13.90754393 11.64644937 20.6796875 17.6640625 C32.7978717 28.05107752 46.59605127 34.68988267 61.83984375 39.140625 C62.99226562 39.4809375 64.1446875 39.82125 65.33203125 40.171875 C81.86246974 44.22014565 99.41597832 43.22175116 115.90234375 39.640625 C144.83016539 33.3820134 174.23565087 37.47913623 199.6015625 53.01953125 C223.67552402 68.78812124 238.01296213 90.88972309 247.27734375 117.640625 C255.38665209 140.94791971 269.27687792 162.1148334 290.83984375 175.140625 C291.39784668 175.47771484 291.95584961 175.81480469 292.53076172 176.16210938 C301.47856667 181.46275001 310.64535343 185.30136252 320.46484375 188.703125 C335.25460226 193.83286625 347.61026129 200.17643553 359.83984375 210.140625 C360.61714844 210.75292969 361.39445313 211.36523438 362.1953125 211.99609375 C381.94922914 228.39359269 394.74253527 254.38622364 397.62451172 279.70605469 C398.93912293 294.56921005 397.89562999 308.72388734 394.8125 323.29296875 C389.18629441 350.11396679 394.65737513 376.49765385 407.83984375 400.140625 C408.37222656 401.11515625 408.90460937 402.0896875 409.453125 403.09375 C413.23096203 409.50576124 417.96906224 414.66299573 423.06982422 420.02001953 C427.55265753 424.74923362 431.40956918 429.58407855 434.83984375 435.140625 C435.50628906 436.21957031 436.17273438 437.29851562 436.859375 438.41015625 C451.76813008 463.18199866 456.50523353 493.16006358 449.77734375 521.453125 C444.52592399 541.33933742 434.54514665 557.32078947 421.12255859 572.66503906 C405.1574784 591.03065472 393.86554445 613.39559568 392.83984375 638.140625 C392.78828125 639.12417969 392.73671875 640.10773437 392.68359375 641.12109375 C392.37919392 652.14290409 394.10435533 662.91092305 396.37451172 673.67602539 C402.2403304 702.47018567 396.6599205 731.70305853 380.99658203 756.39355469 C365.08357479 780.42763653 344.09565982 793.16987429 317.48925781 802.80957031 C288.26640792 813.41603904 265.64043369 832.06111246 252.15234375 860.390625 C249.63859365 865.82758874 247.71355537 871.37408732 245.90234375 877.078125 C241.47362279 890.95083421 235.18878925 902.8994401 225.83984375 914.140625 C225.11925781 915.01332031 224.39867187 915.88601563 223.65625 916.78515625 C205.82478392 937.47728534 180.95485805 950.20777651 153.83984375 953.140625 C139.53295608 953.86478525 125.74296486 953.67932285 111.828125 950.11328125 C90.25917261 944.59982533 65.90322976 948.05900877 45.83984375 957.140625 C44.99679687 957.50800781 44.15375 957.87539063 43.28515625 958.25390625 C32.88087621 963.09040065 23.86534847 970.00465451 15.48046875 977.75390625 C-9.07861749 999.95154189 -36.94176427 1008.70759035 -69.98486328 1007.35205078 C-96.23951186 1005.60389411 -118.56951647 993.83836577 -137.41015625 976.01171875 C-158.3753051 956.35689171 -186.51342798 947.38601916 -214.8203125 947.87890625 C-223.26723285 948.1781408 -231.39266774 949.88739306 -239.63085938 951.67749023 C-246.9242391 953.15375174 -253.97927112 953.48946829 -261.41015625 953.453125 C-262.60092773 953.44821045 -263.79169922 953.4432959 -265.01855469 953.43823242 C-273.76940619 953.32183296 -281.72312745 952.60348569 -290.16015625 950.140625 C-291.39378906 949.78871094 -292.62742187 949.43679688 -293.8984375 949.07421875 C-321.53798365 940.74739496 -344.5649428 922.06559509 -358.31811523 896.65234375 C-362.13251431 889.21036544 -364.90374978 881.46268871 -367.66015625 873.578125 C-373.18224859 857.81060432 -380.21412031 844.81231111 -391.16015625 832.140625 C-391.8046875 831.39296875 -392.44921875 830.6453125 -393.11328125 829.875 C-406.28341164 815.78868662 -423.11705841 807.74209855 -441.09765625 801.703125 C-465.45897117 793.49815271 -487.4004653 779.5001228 -501.16015625 757.140625 C-501.51851563 756.56183594 -501.876875 755.98304688 -502.24609375 755.38671875 C-519.70633439 726.85270133 -521.64998694 696.38073884 -514.82421875 664.3203125 C-509.14381006 637.12117913 -516.22057713 607.91800007 -531.2890625 584.88671875 C-535.06528417 579.70539134 -539.19674341 574.98016643 -543.59765625 570.328125 C-562.87157072 549.84811695 -572.57427309 523.55911468 -572.53515625 495.578125 C-572.53461243 494.91932343 -572.5340686 494.26052185 -572.5335083 493.58175659 C-572.49205115 482.62927502 -571.61536438 472.5456924 -568.16015625 462.140625 C-567.94584961 461.4914209 -567.73154297 460.8422168 -567.51074219 460.17333984 C-561.81445305 443.54465299 -552.66647409 430.17555677 -540.72265625 417.390625 C-521.42574021 396.03941249 -512.00120835 368.05062189 -513.01074219 339.41308594 C-513.54227541 331.32891725 -515.17209766 323.28940323 -516.69702148 315.34301758 C-518.04786255 307.95966997 -518.5112411 300.82868519 -518.47265625 293.328125 C-518.4677417 292.18883545 -518.46282715 291.0495459 -518.45776367 289.87573242 C-518.33830904 281.2682602 -517.5525626 273.44651963 -515.16015625 265.140625 C-514.81984375 263.91730469 -514.47953125 262.69398438 -514.12890625 261.43359375 C-509.74549773 247.05423675 -502.68278067 234.76117701 -493.16015625 223.140625 C-492.46277344 222.27824219 -491.76539063 221.41585937 -491.046875 220.52734375 C-477.05327446 204.07782794 -458.24704206 194.82817069 -438.25390625 187.75390625 C-423.44200432 182.46929456 -409.79512618 175.9314173 -398.16015625 165.140625 C-397.32226562 164.38265625 -396.484375 163.6246875 -395.62109375 162.84375 C-381.13973747 149.12457037 -372.46672096 132.42610734 -366.22265625 113.703125 C-361.19335665 98.66212518 -354.7727891 85.99106015 -344.16015625 74.140625 C-343.66128906 73.5115625 -343.16242188 72.8825 -342.6484375 72.234375 C-326.47018536 51.83772474 -299.32738689 40.36056763 -274.16015625 37.140625 C-260.01500306 35.91980947 -246.47764865 37.06454634 -232.65625 40.16796875 C-216.6606644 43.74624049 -200.00113974 43.10488328 -184.16015625 39.140625 C-183.51127441 38.97965332 -182.86239258 38.81868164 -182.19384766 38.65283203 C-163.79160128 33.93558542 -146.71100322 24.36639735 -133.59765625 10.515625 C-121.06496393 -2.54705679 -102.44262865 -10.53613485 -85.16015625 -14.859375 C-84.43513916 -15.04411377 -83.71012207 -15.22885254 -82.96313477 -15.41918945 C-55.14296524 -21.78402505 -23.66250699 -15.79872647 0 0 Z M-123.3203125 87.17578125 C-141.23828828 104.02202764 -166.2582341 112.77420716 -190.68920898 112.62646484 C-198.26053057 112.37544778 -205.59140789 110.94533694 -213.02587891 109.57983398 C-233.01585701 106.06825371 -252.71232452 107.19622174 -271.16015625 116.140625 C-272.56394531 116.82125 -272.56394531 116.82125 -273.99609375 117.515625 C-280.71575455 120.97897959 -286.49039639 125.15419124 -292.16015625 130.140625 C-292.91039062 130.79546875 -293.660625 131.4503125 -294.43359375 132.125 C-306.87032545 143.73261625 -313.95215839 158.54281023 -319.29907227 174.46289062 C-323.90790096 188.09829757 -330.47001735 199.35089587 -340.16015625 210.140625 C-340.7840625 210.84703125 -341.40796875 211.5534375 -342.05078125 212.28125 C-354.70528395 225.78647557 -372.3902585 234.1286639 -389.97265625 239.0625 C-411.23995156 246.25584988 -429.03861216 263.10705947 -439.07421875 282.94775391 C-444.75015018 294.76941515 -447.71222169 305.78242944 -447.59765625 318.890625 C-447.59443359 320.06512207 -447.59121094 321.23961914 -447.58789062 322.44970703 C-447.45185314 331.14555166 -446.29150621 339.32687442 -444.59912109 347.83666992 C-441.812584 362.33604422 -441.99916889 376.91974049 -446.16015625 391.140625 C-446.51207031 392.37167969 -446.86398437 393.60273438 -447.2265625 394.87109375 C-452.03216901 410.82261354 -460.50694956 424.04260962 -471.78515625 436.203125 C-489.33280271 455.33768906 -495.01668728 478.32561474 -494.28320312 503.57714844 C-493.2659146 524.77065939 -482.3127676 543.49987849 -468.09765625 558.640625 C-450.40040119 577.66933499 -442.16482526 602.96066104 -443.01074219 628.72900391 C-443.56355549 637.65169973 -445.29708262 646.57650364 -447.34765625 655.265625 C-451.09910494 674.05520854 -446.37482731 694.59972163 -437.16015625 711.140625 C-436.64839844 712.06746094 -436.13664062 712.99429688 -435.609375 713.94921875 C-423.71927393 733.95523606 -404.86518678 747.79424084 -382.59765625 754.140625 C-359.41666306 760.7761843 -339.38916322 777.31072514 -327.30078125 798.03222656 C-322.93708083 806.09834746 -319.6724258 814.77121786 -316.6484375 823.4140625 C-307.91014305 848.3079371 -290.43958142 865.90070696 -266.72265625 877.390625 C-261.10137998 879.78069319 -255.1329948 880.96404325 -249.16015625 882.140625 C-248.23847656 882.32625 -247.31679688 882.511875 -246.3671875 882.703125 C-235.0413043 884.24819067 -223.57187971 883.7688213 -212.47265625 881.140625 C-204.47141148 879.27541812 -196.81024598 878.7562998 -188.59765625 878.765625 C-186.99241089 878.76369141 -186.99241089 878.76369141 -185.35473633 878.76171875 C-161.18360262 879.0929075 -139.53581584 888.72531718 -121.76367188 904.71582031 C-108.33820367 916.64502744 -94.8100937 924.2277664 -77.16015625 928.140625 C-76.36746338 928.317146 -75.57477051 928.49366699 -74.75805664 928.67553711 C-53.33990869 932.50991093 -29.34496642 927.68291376 -11.33374023 915.51342773 C-6.46607671 912.01481597 -2.03785745 908.17626328 2.33984375 904.078125 C23.40142486 884.40623766 49.0626456 878.23795483 77.15771484 878.93505859 C82.54286662 879.2357016 87.74210982 880.09762894 93.02734375 881.140625 C118.02829872 886.07389511 140.66136391 882.03394291 162.27734375 868.265625 C180.60664653 855.2528327 192.17561103 838.39487268 198.77734375 817.140625 C202.86286884 804.04610163 209.59282603 792.30416129 218.83984375 782.140625 C219.72285156 781.16480469 220.60585938 780.18898438 221.515625 779.18359375 C233.65172871 766.21249336 248.37827367 758.27177235 265.16723633 752.64233398 C287.99847281 744.97354994 306.85912078 731.35813803 318.08984375 709.515625 C328.65908295 688.03052935 330.40934201 665.25548566 324.83984375 642.140625 C319.48362287 617.57342524 325.54540753 591.09712179 338.83984375 570.140625 C343.46406691 563.60702198 348.54514471 557.46815941 354.02734375 551.640625 C367.16115234 537.08331568 374.27052576 516.74503738 374.08984375 497.390625 C374.08162598 496.32585937 374.0734082 495.26109375 374.06494141 494.1640625 C373.7699144 473.40431266 367.81931918 453.26294647 353.546875 437.62890625 C352.08326642 436.22746865 350.61064326 434.83538144 349.12890625 433.453125 C340.30563596 424.53951406 334.60302576 413.61036729 329.83984375 402.140625 C329.42863281 401.17253906 329.01742187 400.20445312 328.59375 399.20703125 C321.37210874 380.98098425 321.73521699 358.78905967 326.40332031 339.99731445 C331.82172923 317.2493391 325.87974209 293.6647191 314.01269531 273.95898438 C301.18789929 254.07574524 282.09940411 243.01366543 260.16455078 235.73144531 C247.94959263 231.60518734 237.5785771 225.64682703 227.83984375 217.140625 C227.16824219 216.61210937 226.49664063 216.08359375 225.8046875 215.5390625 C211.04573158 203.62626706 203.65501574 186.56370518 197.48144531 169.15795898 C193.18427799 157.26305995 187.39105516 146.55156323 178.83984375 137.140625 C177.62361328 135.78517578 177.62361328 135.78517578 176.3828125 134.40234375 C165.30001004 122.67047527 153.02559469 116.17503156 137.83984375 111.140625 C136.83953125 110.77839844 135.83921875 110.41617188 134.80859375 110.04296875 C120.34262311 105.64607504 103.71078889 107.76305177 89.08984375 110.140625 C62.20790719 114.43706562 36.2111457 111.39768825 13.46484375 95.265625 C8.44181733 91.5767088 3.82732517 87.52112735 -0.75390625 83.296875 C-9.37473993 75.57171235 -18.62210851 70.6432454 -29.16015625 66.140625 C-29.92328125 65.8003125 -30.68640625 65.46 -31.47265625 65.109375 C-62.89505649 52.01670823 -99.95266642 65.16033169 -123.3203125 87.17578125 Z " fill="#00BF63" transform="translate(572.16015625,16.859375)"/>
<path d="M0 0 C7.55603731 5.76515834 13.55326268 13.40999987 15.625 22.8125 C17.06148318 35.20648946 15.54059864 46.73810173 7.625 56.8125 C0.84000607 64.14762857 -6.95690622 69.70200933 -15.26144409 75.15167236 C-18.59399353 77.33931794 -21.91536072 79.54386175 -25.23828125 81.74609375 C-25.96040298 82.22413452 -26.68252472 82.70217529 -27.42652893 83.19470215 C-36.76238012 89.38203567 -46.03352009 95.66537415 -55.3125 101.9375 C-69.54667035 111.55578105 -83.81733838 121.11642817 -98.125 130.625 C-108.10891356 137.26072518 -118.06836886 143.91595181 -127.875 150.8125 C-138.49932965 158.28409757 -149.30621363 165.47148805 -160.12286377 172.66003418 C-173.5351776 181.57385841 -186.90609693 190.54659879 -200.25 199.5625 C-213.20177245 208.31245379 -226.17260193 217.03169978 -239.1875 225.6875 C-248.57409396 231.93128089 -257.93414859 238.20817637 -267.23632812 244.57739258 C-281.84682199 254.57074626 -296.53949301 264.44334692 -311.22920227 274.31970215 C-316.41506842 277.80941928 -321.58799851 281.31694955 -326.74586487 284.84791565 C-329.73316919 286.89079764 -332.72764128 288.92299939 -335.72348022 290.95333862 C-337.09380619 291.88590016 -338.46082215 292.82334815 -339.8241272 293.7661438 C-352.37394122 302.44006875 -363.82492426 307.6943563 -379.375 305.8125 C-392.06374208 302.42283604 -400.69977995 294.86762972 -407.375 283.8125 C-409.42506575 279.65626672 -411.23544142 275.41803895 -412.99697876 271.13424683 C-414.24094425 268.11048239 -415.51232105 265.0984404 -416.78157043 262.08522034 C-417.48725703 260.40951546 -418.19163679 258.73325973 -418.89482117 257.0565033 C-423.23666664 246.71788681 -427.72479792 236.44291474 -432.20184326 226.162323 C-440.13925457 207.93132088 -448.02222865 189.67793904 -455.83709717 171.394104 C-463.10840546 154.38601637 -470.48551596 137.42475945 -477.90260315 120.4797821 C-478.72858073 118.59148667 -479.55211323 116.70214405 -480.375 114.8125 C-480.65633286 114.17020447 -480.93766571 113.52790894 -481.2275238 112.8661499 C-485.31366329 103.46460215 -486.05878669 92.83597122 -482.8125 83 C-478.13649959 71.80394268 -469.6193866 63.8738684 -458.78125 58.78125 C-455.58868139 57.49593017 -452.81289116 56.99667274 -449.375 56.8125 C-448.61574219 56.76222656 -447.85648437 56.71195312 -447.07421875 56.66015625 C-440.6806255 56.41157175 -435.33915586 57.55260569 -429.375 59.8125 C-428.68535156 60.06773437 -427.99570312 60.32296875 -427.28515625 60.5859375 C-418.3929328 64.42456069 -412.74503949 71.39478745 -408.6171875 79.9609375 C-408.10591812 81.00376389 -408.10591812 81.00376389 -407.58432007 82.06765747 C-403.49023726 90.50308055 -399.73916947 99.09058145 -396 107.6875 C-395.21924927 109.47468529 -394.43832067 111.26179288 -393.65722656 113.04882812 C-385.85359185 130.92631071 -378.16436262 148.85308227 -370.51464844 166.796875 C-368.73751196 170.96493155 -366.9548269 175.13058816 -365.17041016 179.29553223 C-363.83942894 182.40392141 -362.51158658 185.51364356 -361.18469238 188.6237793 C-360.56663416 190.07105419 -359.947431 191.51784072 -359.32702637 192.96411133 C-358.48284634 194.93297754 -357.64316526 196.90370006 -356.8046875 198.875 C-356.33272949 199.97972656 -355.86077148 201.08445312 -355.37451172 202.22265625 C-354.375 204.8125 -354.375 204.8125 -354.375 206.8125 C-341.69704319 198.38061155 -329.05686198 189.8942834 -316.4375 181.375 C-314.55993143 180.10802016 -312.68232641 178.84109434 -310.8046875 177.57421875 C-306.92059594 174.95349476 -303.03665808 172.33254324 -299.15283203 169.71142578 C-290.94892836 164.17503325 -282.74309975 158.6414954 -274.537323 153.10787964 C-270.06646099 150.0928831 -265.59573786 147.07768063 -261.125 144.0625 C-259.33333399 142.85416569 -257.54166732 141.64583236 -255.75 140.4375 C-254.863125 139.839375 -253.97625 139.24125 -253.0625 138.625 C-159.00000002 75.18750001 -159.00000002 75.18750001 -156.31260681 73.37507629 C-154.52057884 72.16649645 -152.72855614 70.9579088 -150.9365387 69.74931335 C-146.46294305 66.73218762 -141.9892566 63.71519672 -137.51538086 60.69848633 C-127.55081836 53.97919717 -117.58853604 47.25655259 -107.6292572 40.5294342 C-103.11369081 37.47995264 -98.59657391 34.43281617 -94.07592773 31.39086914 C-93.19952133 30.80112808 -92.32311493 30.21138702 -91.42015076 29.60377502 C-89.66709179 28.42418569 -87.91396927 27.24469078 -86.16078186 26.06529236 C-80.96957035 22.56992585 -75.79211981 19.05523613 -70.62501526 15.52433777 C-67.34308731 13.28458501 -64.05373175 11.05591123 -60.76290894 8.82925415 C-59.23937967 7.79458026 -57.71915819 6.75501501 -56.20266724 5.71005249 C-38.27723808 -6.63565184 -19.9673759 -13.00904793 0 0 Z " fill="#FEFEFE" transform="translate(756.375,371.1875)"/>
<path d="M0 0 C0.62519531 0.20898926 1.25039063 0.41797852 1.89453125 0.63330078 C15.75937117 5.34551089 26.88732567 12.9321743 37.81835938 22.54394531 C55.16798905 37.72729984 76.99165836 48.28534131 100.55078125 47.5078125 C106.81789207 46.91984685 113.00133901 45.63133512 119.1875 44.5 C148.01065386 39.23020466 173.95044131 42.92481075 199 59 C219.41723422 73.54185227 232.09830789 94.12418748 239.9375 117.5625 C244.58779699 131.24430163 251.77363881 141.86030289 262 152 C262.76828125 152.80179688 263.5365625 153.60359375 264.328125 154.4296875 C274.7921769 164.71577934 288.20251093 169.96872368 301.88793945 174.54956055 C325.48416919 182.47942216 345.87670257 199.1754115 357.359375 221.421875 C359.39065225 225.55216884 361.2442668 229.7459903 363 234 C363.35835937 234.86367188 363.71671875 235.72734375 364.0859375 236.6171875 C370.26953082 253.33125658 370.01272019 274.58661604 365.75390625 291.68359375 C360.47525313 314.90419737 364.9790521 339.14107781 377.125 359.5 C379.85867371 363.64805272 382.96982411 367.27428634 386.375 370.875 C406.89265578 392.58762087 415.85844464 419.04649659 415.2421875 448.6953125 C413.45555953 473.07413927 401.52584138 494.68093699 385.0625 512.1875 C377.52046711 520.57745375 371.37731048 531.23973174 368 542 C367.63003906 543.12019531 367.26007812 544.24039063 366.87890625 545.39453125 C362.4784042 559.83350282 362.53414015 574.87461675 366 589.5 C370.09003798 606.97382921 370.75821741 628.14444592 364 645 C363.75862305 645.63470215 363.51724609 646.2694043 363.26855469 646.92333984 C353.33045612 672.85615176 335.65223786 692.72385886 310.18603516 704.08398438 C306.3655575 705.68488142 302.4667589 707.05675448 298.5625 708.4375 C273.43349703 717.3710692 254.95161076 731.69278037 243 756 C241.1596518 760.2753493 239.57511661 764.62127777 238 769 C232.98159525 782.37417225 227.34128954 794.05003437 218 805 C217.43410156 805.69996094 216.86820313 806.39992188 216.28515625 807.12109375 C201.8432694 824.55330071 178.68276347 836.08698892 156.34033203 838.79345703 C143.04078382 839.96719141 128.13424585 840.23822873 115.2019043 836.47705078 C110.2572695 835.4057772 105.03690889 835.81520511 100 835.8125 C98.83082031 835.80025391 97.66164063 835.78800781 96.45703125 835.77539062 C85.89483787 835.75780651 75.7963053 836.56836091 66.125 841.0625 C65.45573486 841.36631592 64.78646973 841.67013184 64.09692383 841.9831543 C53.37843913 847.00669325 44.50332935 853.32039773 35.91015625 861.4453125 C12.06322841 882.37939412 -16.33815134 886.70152849 -47 885 C-53.34821688 884.23662616 -59.13553055 882.50741285 -65 880 C-66.01586182 879.57388428 -66.01586182 879.57388428 -67.05224609 879.13916016 C-79.28204344 873.85361879 -90.27428196 866.52962078 -100 857.4375 C-117.67225404 841.14679025 -140.12745273 834.24980193 -163.89648438 834.89794922 C-170.47736785 835.21721678 -177.03640971 836.19849729 -183.48950195 837.50341797 C-209.6980662 842.7072592 -235.55526605 837.80955715 -257.8125 823.1875 C-279.11406958 808.60097561 -291.44132819 789.32359268 -299.47949219 765.18383789 C-303.36804184 753.6564235 -309.092414 744.26084299 -317 735 C-317.60714844 734.19304688 -318.21429688 733.38609375 -318.83984375 732.5546875 C-329.22690151 720.27053601 -344.0399719 713.58262443 -358.9375 708.5625 C-373.95853499 703.4857633 -385.9646804 696.28926287 -398 686 C-399.02867187 685.12601563 -399.02867187 685.12601563 -400.078125 684.234375 C-417.50851713 668.10718976 -427.7300402 642.67396743 -429.23828125 619.30859375 C-429.39790027 610.98320162 -428.63847042 603.41474937 -427 595.25 C-423.54780398 577.50532067 -421.94751153 557.02917947 -429 540 C-429.27714844 539.15824219 -429.55429687 538.31648437 -429.83984375 537.44921875 C-433.4192175 527.10697294 -439.91533585 517.90670184 -447.4375 510.0625 C-467.51515591 489.10196188 -475.85133314 462.66702185 -475.30859375 434.0546875 C-474.40812614 410.25394619 -463.74828823 390.71691254 -448.36376953 373.06982422 C-431.55283393 353.74660254 -422.83327667 331.21946122 -423.79443359 305.56396484 C-424.14307968 301.21541229 -425.09231363 297.01044064 -426 292.75 C-429.72006725 274.69038062 -430.97736368 253.39195372 -424 236 C-423.75330566 235.35466309 -423.50661133 234.70932617 -423.25244141 234.04443359 C-412.81959506 206.97283046 -392.77675882 187.17354044 -366.38671875 175.36328125 C-362.78320895 173.91273347 -359.13543699 172.68031267 -355.4375 171.5 C-332.9312331 164.19817213 -315.46064693 149.50155812 -304.4375 128.5625 C-301.65439427 122.81958341 -299.53485638 116.98095554 -297.5 110.9375 C-288.53363163 84.42564668 -270.81478452 64.2524565 -245.75 51.625 C-240.29132935 48.96433724 -234.91338201 46.46612777 -229 45 C-227.94167969 44.72414062 -226.88335937 44.44828125 -225.79296875 44.1640625 C-211.56417521 40.86067912 -198.21302501 41.19474449 -183.9375 44 C-158.27941572 48.94592764 -133.5070574 46.83990625 -111 33 C-106.88091883 30.16923977 -103.18112451 26.97576799 -99.48046875 23.62353516 C-72.5957346 -0.67057575 -35.35408588 -12.22916117 0 0 Z M-93.16015625 33.03515625 C-111.07813203 49.88140264 -136.09807785 58.63358216 -160.52905273 58.48583984 C-168.10037432 58.23482278 -175.43125164 56.80471194 -182.86572266 55.43920898 C-202.85570076 51.92762871 -222.55216827 53.05559674 -241 62 C-242.40378906 62.680625 -242.40378906 62.680625 -243.8359375 63.375 C-250.5555983 66.83835459 -256.33024014 71.01356624 -262 76 C-262.75023437 76.65484375 -263.50046875 77.3096875 -264.2734375 77.984375 C-276.7101692 89.59199125 -283.79200214 104.40218523 -289.13891602 120.32226562 C-293.74774471 133.95767257 -300.3098611 145.21027087 -310 156 C-310.62390625 156.70640625 -311.2478125 157.4128125 -311.890625 158.140625 C-324.5451277 171.64585057 -342.23010225 179.9880389 -359.8125 184.921875 C-381.07979531 192.11522488 -398.87845591 208.96643447 -408.9140625 228.80712891 C-414.58999393 240.62879015 -417.55206544 251.64180444 -417.4375 264.75 C-417.43427734 265.92449707 -417.43105469 267.09899414 -417.42773438 268.30908203 C-417.29169689 277.00492666 -416.13134996 285.18624942 -414.43896484 293.69604492 C-411.65242775 308.19541922 -411.83901264 322.77911549 -416 337 C-416.35191406 338.23105469 -416.70382812 339.46210938 -417.06640625 340.73046875 C-421.87201276 356.68198854 -430.34679331 369.90198462 -441.625 382.0625 C-459.17264646 401.19706406 -464.85653103 424.18498974 -464.12304688 449.43652344 C-463.10575835 470.63003439 -452.15261135 489.35925349 -437.9375 504.5 C-420.24024494 523.52870999 -412.00466901 548.82003604 -412.85058594 574.58837891 C-413.40339924 583.51107473 -415.13692637 592.43587864 -417.1875 601.125 C-420.93894869 619.91458354 -416.21467106 640.45909663 -407 657 C-406.48824219 657.92683594 -405.97648437 658.85367188 -405.44921875 659.80859375 C-393.55911768 679.81461106 -374.70503053 693.65361584 -352.4375 700 C-329.25650681 706.6355593 -309.22900697 723.17010014 -297.140625 743.89160156 C-292.77692458 751.95772246 -289.51226955 760.63059286 -286.48828125 769.2734375 C-277.7499868 794.1673121 -260.27942517 811.76008196 -236.5625 823.25 C-230.94122373 825.64006819 -224.97283855 826.82341825 -219 828 C-218.07832031 828.185625 -217.15664063 828.37125 -216.20703125 828.5625 C-204.88114805 830.10756567 -193.41172346 829.6281963 -182.3125 827 C-174.31125523 825.13479312 -166.65008973 824.6156748 -158.4375 824.625 C-156.83225464 824.62306641 -156.83225464 824.62306641 -155.19458008 824.62109375 C-131.02344637 824.9522825 -109.37565959 834.58469218 -91.60351562 850.57519531 C-78.17804742 862.50440244 -64.64993745 870.0871414 -47 874 C-46.20730713 874.176521 -45.41461426 874.35304199 -44.59790039 874.53491211 C-23.17975244 878.36928593 0.81518983 873.54228876 18.82641602 861.37280273 C23.69407954 857.87419097 28.1222988 854.03563828 32.5 849.9375 C53.56158111 830.26561266 79.22280185 824.09732983 107.31787109 824.79443359 C112.70302287 825.0950766 117.90226607 825.95700394 123.1875 827 C148.18845497 831.93327011 170.82152016 827.89331791 192.4375 814.125 C210.76680278 801.1122077 222.33576728 784.25424768 228.9375 763 C233.02302509 749.90547663 239.75298228 738.16353629 249 728 C249.88300781 727.02417969 250.76601563 726.04835938 251.67578125 725.04296875 C263.81188496 712.07186836 278.53842992 704.13114735 295.32739258 698.50170898 C318.15862906 690.83292494 337.01927703 677.21751303 348.25 655.375 C358.8192392 633.88990435 360.56949826 611.11486066 355 588 C349.64377912 563.43280024 355.70556378 536.95649679 369 516 C373.62422316 509.46639698 378.70530096 503.32753441 384.1875 497.5 C397.32130859 482.94269068 404.43068201 462.60441238 404.25 443.25 C404.24178223 442.18523437 404.23356445 441.12046875 404.22509766 440.0234375 C403.93007065 419.26368766 397.97947543 399.12232147 383.70703125 383.48828125 C382.24342267 382.08684365 380.77079951 380.69475644 379.2890625 379.3125 C370.46579221 370.39888906 364.76318201 359.46974229 360 348 C359.58878906 347.03191406 359.17757812 346.06382812 358.75390625 345.06640625 C351.53226499 326.84035925 351.89537324 304.64843467 356.56347656 285.85668945 C361.98188548 263.1087141 356.03989834 239.5240941 344.17285156 219.81835938 C331.34805554 199.93512024 312.25956036 188.87304043 290.32470703 181.59082031 C278.10974888 177.46456234 267.73873335 171.50620203 258 163 C257.32839844 162.47148437 256.65679688 161.94296875 255.96484375 161.3984375 C241.20588783 149.48564206 233.81517199 132.42308018 227.64160156 115.01733398 C223.34443424 103.12243495 217.55121141 92.41093823 209 83 C207.78376953 81.64455078 207.78376953 81.64455078 206.54296875 80.26171875 C195.46016629 68.52985027 183.18575094 62.03440656 168 57 C166.9996875 56.63777344 165.999375 56.27554688 164.96875 55.90234375 C150.50277936 51.50545004 133.87094514 53.62242677 119.25 56 C92.36806344 60.29644062 66.37130195 57.25706325 43.625 41.125 C38.60197358 37.4360838 33.98748142 33.38050235 29.40625 29.15625 C20.78541632 21.43108735 11.53804774 16.5026204 1 12 C0.236875 11.6596875 -0.52625 11.319375 -1.3125 10.96875 C-32.73490024 -2.12391677 -69.79251017 11.01970669 -93.16015625 33.03515625 Z " fill="#F8FDFB" transform="translate(542,71)"/>
</svg>
